# xmcd CD database file
#
# Track frame offsets:
#	150
#	13432
#	33673
#	47478
#	65129
#	84162
#	99515
#	121892
#	140442
#	158816
#
# Disc length: 2301 seconds
#
# Revision: 0
# Processed by: cddbd v1.5.2PL0 Copyright (c) Steve Scherf et al.
# Submitted via: CDex 1.79
#
DISCID=8208fb0a
DTITLE=Lazy Mike and the Rockin' Recliners - Rollin' Through This World
DYEAR=1900
DGENRE=Blues
TTITLE0=01 Joint Starts Jumpin' at 8_Lazy Mike and Rockin' Recliners
TTITLE1=02 Floyd's Lament_Lazy Mike and Rockin' Recliners
TTITLE2=03 Rollin' Through This World_Lazy Mike and Rockin' Recliners
TTITLE3=04 Lovin' Kissin' Huggin'_Lazy Mike and Rockin' Recliners
TTITLE4=05 Hard to See_Lazy Mike and Rockin' Recliners
TTITLE5=06 Brand New Man_Lazy Mike and Rockin' Recliners
TTITLE6=07 Sweet Little Angel_Lazy Mike and Rockin' Recliners
TTITLE7=08 Messin' With The Kid_Lazy Mike and Rockin' Recliners
TTITLE8=09 Leavin' for Memphis_Lazy Mike and Rockin' Recliners
TTITLE9=10 Tell Me Why_Lazy Mike and Rockin' Recliners
EXTD=
EXTT0=
EXTT1=
EXTT2=
EXTT3=
EXTT4=
EXTT5=
EXTT6=
EXTT7=
EXTT8=
EXTT9=
PLAYORDER=
